<svg width="171" height="32" viewBox="0 0 171 32" fill="none" xmlns="http://www.w3.org/2000/svg">
<g clip-path="url(#clip0_8465_307)">
<path d="M24.0177 13.7786V14.1043L24.2895 14.2842L26.9919 16.0723V22.492L14.2709 30.681L1.54993 22.492V10.2396L14.2706 2.05078L20.8647 6.30326V9.95316V10.2874L21.1474 10.4658L24.0177 12.2775V13.7786Z" fill="white" stroke="#28292D" stroke-width="1.23873"/>
<path d="M26.0978 16.6974V21.8719L14.2713 29.4439L2.44482 21.8719V16.6974L14.2713 9.12549L26.0978 16.6974Z" fill="white" stroke="#28292D" stroke-width="1.23873"/>
<path d="M14.3602 29.3681V23.5304" stroke="#28292D" stroke-width="1.23873"/>
<path d="M14.2709 23.6062L2.9624 16.3658L14.2709 9.12549L25.5795 16.3658L14.2709 23.6062Z" fill="white" stroke="#28292D" stroke-width="1.23873"/>
<path d="M11.4904 17.8455L11.163 17.6359L10.8357 17.8455L8.05469 19.626L2.44482 16.0343V10.8598L14.2713 3.28784L19.8774 6.87717L19.8365 10.4771L19.8327 10.8105L20.1124 10.9923L22.9684 12.8481L22.9882 18.0252L17.3796 21.6161L11.4904 17.8455Z" fill="white" stroke="#28292D" stroke-width="1.23873"/>
<path d="M17.0519 9.0486L22.4712 12.5183L17.3793 15.7784L11.49 12.0078L11.1626 11.7982L10.8353 12.0078L8.05431 13.7883L2.9624 10.5282L14.2709 3.28784L19.3629 6.54796L17.0519 8.02754L16.2545 8.53809L17.0519 9.0486Z" fill="white" stroke="#28292D" stroke-width="1.23873"/>
<path d="M8.00879 19.5502V13.7125" stroke="#28292D" stroke-width="1.23873"/>
<path d="M11.1404 17.7813V11.9436" stroke="#28292D" stroke-width="1.23873"/>
<path d="M17.4019 21.496V15.6583" stroke="#28292D" stroke-width="1.23873"/>
</g>
<path fill-rule="evenodd" clip-rule="evenodd" d="M35.8982 9.3299L49.1956 9.3299L48.7247 12.7196H44.2565V21.1392H40.6071V12.7196L35.8982 12.7196L35.8982 9.3299Z" fill="#28292D"/>
<path fill-rule="evenodd" clip-rule="evenodd" d="M50.5103 15.2575C50.5103 11.863 53.4585 9.11121 57.0953 9.11121H58.5228C62.1596 9.11121 65.1079 11.863 65.1079 15.2575C65.1079 18.7155 62.1596 21.3579 58.5228 21.3579H57.0953C53.4585 21.3579 50.5103 18.6519 50.5103 15.2575ZM56.9384 12.6103C55.4688 12.6103 54.2774 13.8629 54.2774 15.2346C54.2774 16.6062 55.4688 17.8588 56.9384 17.8588H58.6798C60.1494 17.8588 61.3407 16.6062 61.3407 15.2346C61.3407 13.8629 60.1494 12.6103 58.6798 12.6103H56.9384Z" fill="#28292D"/>
<path fill-rule="evenodd" clip-rule="evenodd" d="M66.2849 9.33002H75.2767C78.2772 9.33002 80.7097 11.5907 80.7097 14.3794C80.7097 17.168 78.2772 19.4992 75.2767 19.4992H69.9381V22.8889L66.2849 21.7954V9.33002ZM69.9381 16.1094H75.3944C76.2184 16.1094 77.0042 15.2347 77.0042 14.3794C77.0042 13.4851 76.2184 12.7197 75.3944 12.7197H69.9381V16.1094Z" fill="#28292D"/>
<path fill-rule="evenodd" clip-rule="evenodd" d="M81.7075 9.3299H94.8924L94.4244 12.7192H85.3569V21.1392H81.7075V9.3299Z" fill="#28292D"/>
<path fill-rule="evenodd" clip-rule="evenodd" d="M96.1882 9.33002H110.197V21.1393H106.548V12.7193L99.8376 12.7193V21.1446H96.1882V9.33002Z" fill="#28292D"/>
<path fill-rule="evenodd" clip-rule="evenodd" d="M116.765 9.30618H120.981L126.889 21.1594H122.816L118.895 13.1768L115.156 21.1594H111.046L116.765 9.30618Z" fill="#28292D"/>
<path fill-rule="evenodd" clip-rule="evenodd" d="M133.518 9.30618H137.735L143.642 21.1594H139.8L138.799 19.3571H132.593L131.642 21.1594H127.778L133.518 9.30618ZM134.009 16.2876H137.322L135.648 12.7869L134.009 16.2876Z" fill="#28292D"/>
<path fill-rule="evenodd" clip-rule="evenodd" d="M143.156 14.5989C143.156 11.6588 145.721 9.33002 148.884 9.33002H155.637L155.166 12.7193H148.884C147.897 12.7193 146.862 13.6816 146.862 14.5989V15.8358C146.862 16.7531 147.897 17.7496 148.884 17.7496H155.637L155.166 21.1393H148.884C145.721 21.1393 143.156 18.7759 143.156 15.8358V14.5989Z" fill="#28292D"/>
<path d="M170.23 9.33002L169.759 12.7197H165.291V21.1393H161.642V12.7197L156.933 12.7197V9.33002L170.23 9.33002Z" fill="#28292D"/>
<defs>
<clipPath id="clip0_8465_307">
<rect width="27.8982" height="30.998" fill="white" transform="translate(0 0.500977)"/>
</clipPath>
</defs>
</svg>
