<svg width="38" height="40" viewBox="0 0 38 40" fill="none" xmlns="http://www.w3.org/2000/svg">
<path d="M6.9152 35.8372V33.919C6.9152 33.1836 6.45845 32.7042 5.67555 32.7042C5.28418 32.7042 4.86012 32.832 4.56652 33.2477C4.33829 32.896 4.01215 32.7042 3.52286 32.7042C3.19656 32.7042 2.87057 32.8 2.60951 33.1517V32.7681H1.92453V35.8372H2.60951V34.1427C2.60951 33.5994 2.90311 33.3435 3.35986 33.3435C3.81631 33.3435 4.04484 33.6313 4.04484 34.1427V35.8372H4.72981V34.1427C4.72981 33.5994 5.05581 33.3435 5.47987 33.3435C5.93662 33.3435 6.16484 33.6313 6.16484 34.1427V35.8372H6.9152ZM17.0592 32.7681H15.9503V31.841H15.2654V32.7681H14.6456V33.3754H15.2652V34.7822C15.2652 35.4856 15.5588 35.9011 16.3417 35.9011C16.6353 35.9011 16.9613 35.8053 17.1898 35.6774L16.994 35.1019C16.7983 35.2297 16.5701 35.2618 16.4069 35.2618C16.0808 35.2618 15.9503 35.07 15.9503 34.7502V33.3754H17.0592V32.7681ZM22.8653 32.704C22.474 32.704 22.213 32.896 22.0499 33.1517V32.7681H21.3649V35.8372H22.0499V34.1108C22.0499 33.5994 22.2781 33.3116 22.7022 33.3116C22.8326 33.3116 22.9958 33.3436 23.1263 33.3755L23.3219 32.7362C23.1915 32.7042 22.9958 32.7042 22.8653 32.7042V32.704ZM14.0911 33.0238C13.7648 32.8 13.3082 32.7042 12.8189 32.7042C12.0362 32.7042 11.5143 33.0878 11.5143 33.6952C11.5143 34.2068 11.9057 34.4944 12.5907 34.5904L12.9168 34.6225C13.2757 34.6862 13.4714 34.7822 13.4714 34.9421C13.4714 35.1658 13.2104 35.3257 12.7537 35.3257C12.2971 35.3257 11.9383 35.1658 11.7099 35.0061L11.3837 35.5175C11.7426 35.7733 12.2319 35.9011 12.721 35.9011C13.6344 35.9011 14.1563 35.4856 14.1563 34.9101C14.1563 34.3666 13.7323 34.0788 13.0798 33.983L12.7537 33.9509C12.4601 33.9189 12.2319 33.8551 12.2319 33.6633C12.2319 33.4395 12.4601 33.3116 12.8189 33.3116C13.2104 33.3116 13.6018 33.4714 13.7975 33.5673L14.0911 33.0238ZM32.292 32.7042C31.9005 32.7042 31.6396 32.896 31.4764 33.1517V32.7681H30.7914V35.8372H31.4764V34.1108C31.4764 33.5994 31.7048 33.3116 32.1287 33.3116C32.2593 33.3116 32.4225 33.3436 32.5529 33.3755L32.7486 32.7362C32.6181 32.7042 32.4225 32.7042 32.292 32.7042ZM23.5503 34.3026C23.5503 35.2297 24.2026 35.9011 25.2139 35.9011C25.6705 35.9011 25.9966 35.8053 26.3228 35.5496L25.9966 35.0061C25.7357 35.1979 25.4748 35.2937 25.1812 35.2937C24.6267 35.2937 24.2353 34.9101 24.2353 34.3026C24.2353 33.7272 24.6267 33.3435 25.1812 33.3116C25.4748 33.3116 25.7357 33.4074 25.9966 33.5994L26.3228 33.0559C25.9966 32.8 25.6705 32.7042 25.2139 32.7042C24.2026 32.7042 23.5503 33.3755 23.5503 34.3026ZM29.8782 34.3026V32.7681H29.1933V33.1517C28.9649 32.8641 28.6388 32.7042 28.2147 32.7042C27.334 32.7042 26.649 33.3755 26.649 34.3026C26.649 35.2297 27.334 35.9011 28.2147 35.9011C28.6713 35.9011 28.9976 35.7414 29.1933 35.4536V35.8372H29.8782V34.3026ZM27.3666 34.3026C27.3666 33.7591 27.7254 33.3116 28.3125 33.3116C28.867 33.3116 29.2585 33.7272 29.2585 34.3026C29.2585 34.8461 28.867 35.2937 28.3125 35.2937C27.7254 35.2616 27.3666 34.8461 27.3666 34.3026ZM19.1795 32.7042C18.2662 32.7042 17.6138 33.3435 17.6138 34.3026C17.6138 35.2618 18.266 35.9011 19.2121 35.9011C19.6687 35.9011 20.1254 35.7733 20.4843 35.4856L20.158 35.0061C19.8971 35.1979 19.5709 35.3257 19.2448 35.3257C18.8207 35.3257 18.3966 35.1339 18.2987 34.5903H20.6147V34.3347C20.6474 33.3435 20.0602 32.7042 19.1794 32.7042H19.1795ZM19.1795 33.2796C19.6035 33.2796 19.8972 33.5354 19.9623 34.015H18.3314C18.3966 33.5994 18.6902 33.2796 19.1795 33.2796ZM36.1735 34.3026V31.5532H35.4885V33.1517C35.2601 32.8641 34.934 32.7042 34.5099 32.7042C33.6293 32.7042 32.9443 33.3755 32.9443 34.3026C32.9443 35.2297 33.6293 35.9011 34.5099 35.9011C34.9667 35.9011 35.2928 35.7414 35.4885 35.4536V35.8372H36.1735V34.3026ZM33.662 34.3026C33.662 33.7591 34.0206 33.3116 34.6078 33.3116C35.1624 33.3116 35.5537 33.7272 35.5537 34.3026C35.5537 34.8461 35.1624 35.2937 34.6078 35.2937C34.0206 35.2616 33.662 34.8461 33.662 34.3026ZM10.764 34.3026V32.7681H10.079V33.1517C9.85064 32.8641 9.5245 32.7042 9.10044 32.7042C8.21977 32.7042 7.5348 33.3755 7.5348 34.3026C7.5348 35.2297 8.21977 35.9011 9.10044 35.9011C9.55719 35.9011 9.88333 35.7414 10.079 35.4536V35.8372H10.764V34.3026ZM8.21977 34.3026C8.21977 33.7591 8.57861 33.3116 9.16566 33.3116C9.72018 33.3116 10.1117 33.7272 10.1117 34.3026C10.1117 34.8461 9.72018 35.2937 9.16566 35.2937C8.57861 35.2616 8.21977 34.8461 8.21977 34.3026Z" fill="#FAFAFA"/>
<path d="M13.8626 9.46118H24.1373V27.5563H13.8626V9.46118Z" fill="#FF5F00"/>
<path d="M14.5151 18.5093C14.5151 14.8328 16.2764 11.5717 18.9837 9.46165C16.9941 7.9271 14.4826 7 11.7427 7C5.25144 7 0 12.1471 0 18.5093C0 24.8713 5.25144 30.0186 11.7425 30.0186C14.4824 30.0186 16.9939 29.0915 18.9837 27.5568C16.2764 25.4787 14.5151 22.1858 14.5151 18.5093Z" fill="#EB001B"/>
<path d="M37.9998 18.5093C37.9998 24.8713 32.7484 30.0186 26.2573 30.0186C23.5174 30.0186 21.0059 29.0915 19.0162 27.5568C21.7561 25.4468 23.4849 22.1858 23.4849 18.5093C23.4849 14.8328 21.7234 11.5717 19.0162 9.46165C21.0058 7.9271 23.5174 7 26.2573 7C32.7484 7 38 12.1792 38 18.5093H37.9998Z" fill="#F79E1B"/>
</svg>
