<svg width="24" height="24" viewBox="0 0 24 24" fill="none" xmlns="http://www.w3.org/2000/svg">
<mask id="path-1-inside-1_8465_529" fill="white">
<path fill-rule="evenodd" clip-rule="evenodd" d="M23.435 6.04167C23.613 5.45417 23.435 5.02708 22.6475 5.02708H20.029C19.3685 5.02708 19.0635 5.40104 18.8855 5.80104C18.8855 5.80104 17.5385 9.21771 15.6575 11.4328C15.0475 12.0734 14.768 12.287 14.4375 12.287C14.2595 12.287 14.0305 12.0734 14.0305 11.4865V6.01406C14.0305 5.32031 13.8275 5 13.268 5H9.15001C8.74301 5 8.48901 5.32031 8.48901 5.64063C8.48901 6.30781 9.42951 6.46823 9.53101 8.33646V12.3958C9.53101 13.2766 9.38101 13.4375 9.04801 13.4375C8.15851 13.4375 5.99801 9.99427 4.70201 6.07083C4.45001 5.29375 4.19401 5 3.533 5H0.889501C0.127 5 0 5.37344 0 5.77396C0 6.49479 0.889501 10.1245 4.14301 14.9286C6.30351 18.2099 9.37901 19.9734 12.1495 19.9734C13.8275 19.9734 14.0305 19.5729 14.0305 18.9057V16.4234C14.0305 15.6229 14.183 15.4896 14.717 15.4896C15.098 15.4896 15.7845 15.7026 17.335 17.2776C19.114 19.1458 19.419 20 20.4105 20H23.0285C23.791 20 24.147 19.5995 23.9435 18.8255C23.715 18.0516 22.8505 16.9307 21.732 15.5964C21.122 14.8495 20.207 14.0219 19.9275 13.6214C19.5465 13.0875 19.648 12.874 19.9275 12.3938C19.902 12.3938 23.105 7.64271 23.435 6.03958"/>
</mask>
<path fill-rule="evenodd" clip-rule="evenodd" d="M23.435 6.04167C23.613 5.45417 23.435 5.02708 22.6475 5.02708H20.029C19.3685 5.02708 19.0635 5.40104 18.8855 5.80104C18.8855 5.80104 17.5385 9.21771 15.6575 11.4328C15.0475 12.0734 14.768 12.287 14.4375 12.287C14.2595 12.287 14.0305 12.0734 14.0305 11.4865V6.01406C14.0305 5.32031 13.8275 5 13.268 5H9.15001C8.74301 5 8.48901 5.32031 8.48901 5.64063C8.48901 6.30781 9.42951 6.46823 9.53101 8.33646V12.3958C9.53101 13.2766 9.38101 13.4375 9.04801 13.4375C8.15851 13.4375 5.99801 9.99427 4.70201 6.07083C4.45001 5.29375 4.19401 5 3.533 5H0.889501C0.127 5 0 5.37344 0 5.77396C0 6.49479 0.889501 10.1245 4.14301 14.9286C6.30351 18.2099 9.37901 19.9734 12.1495 19.9734C13.8275 19.9734 14.0305 19.5729 14.0305 18.9057V16.4234C14.0305 15.6229 14.183 15.4896 14.717 15.4896C15.098 15.4896 15.7845 15.7026 17.335 17.2776C19.114 19.1458 19.419 20 20.4105 20H23.0285C23.791 20 24.147 19.5995 23.9435 18.8255C23.715 18.0516 22.8505 16.9307 21.732 15.5964C21.122 14.8495 20.207 14.0219 19.9275 13.6214C19.5465 13.0875 19.648 12.874 19.9275 12.3938C19.902 12.3938 23.105 7.64271 23.435 6.03958" fill="#FAFBFF"/>
<path d="M18.8855 5.80104L18.8474 5.78409L18.8468 5.78576L18.8855 5.80104ZM15.6575 11.4328L15.6877 11.4616L15.6893 11.4598L15.6575 11.4328ZM9.53101 8.33646H9.57274L9.57262 8.3342L9.53101 8.33646ZM4.70201 6.07083L4.66237 6.08369L4.66244 6.0839L4.70201 6.07083ZM4.14301 14.9286L4.17781 14.9057L4.17751 14.9053L4.14301 14.9286ZM17.335 17.2776L17.3652 17.2489L17.3647 17.2484L17.335 17.2776ZM23.9435 18.8255L23.9838 18.8149L23.9835 18.8137L23.9435 18.8255ZM21.732 15.5964L21.6998 15.6227L21.7001 15.6231L21.732 15.5964ZM19.9275 13.6214L19.9617 13.5975L19.9614 13.5971L19.9275 13.6214ZM19.9275 12.3938L19.9635 12.4147L20 12.3521H19.9275V12.3938ZM23.4749 6.05375C23.5652 5.75567 23.5691 5.48663 23.438 5.29088C23.306 5.09379 23.0472 4.98542 22.6475 4.98542V5.06875C23.0353 5.06875 23.2593 5.17392 23.3687 5.33725C23.479 5.50191 23.4828 5.74016 23.3952 6.02958L23.4749 6.05375ZM22.6475 4.98542H20.029V5.06875H22.6475V4.98542ZM20.029 4.98542C19.6902 4.98542 19.4395 5.08158 19.2505 5.23141C19.0622 5.38063 18.9379 5.58075 18.8475 5.7841L18.9236 5.81798C19.0111 5.62133 19.1284 5.43447 19.3022 5.29672C19.4753 5.15957 19.7073 5.06875 20.029 5.06875V4.98542ZM18.8855 5.80104C18.8468 5.78576 18.8468 5.78577 18.8468 5.78579C18.8467 5.78581 18.8467 5.78585 18.8467 5.7859C18.8467 5.78599 18.8466 5.78614 18.8465 5.78634C18.8464 5.78675 18.8461 5.78735 18.8458 5.78817C18.8452 5.78979 18.8442 5.79223 18.8429 5.79547C18.8403 5.80195 18.8364 5.81162 18.8313 5.82435C18.821 5.8498 18.8057 5.88747 18.7855 5.93623C18.7451 6.03374 18.6852 6.17559 18.6075 6.35277C18.4521 6.70714 18.2252 7.20274 17.9397 7.76746C17.3684 8.89741 16.5631 10.302 15.6258 11.4058L15.6893 11.4598C16.6329 10.3485 17.4416 8.93722 18.0141 7.80506C18.3004 7.23873 18.5279 6.74172 18.6838 6.38624C18.7618 6.2085 18.8219 6.06612 18.8625 5.96813C18.8828 5.91913 18.8982 5.88123 18.9086 5.85556C18.9138 5.84272 18.9177 5.83294 18.9203 5.82635C18.9216 5.82306 18.9226 5.82056 18.9233 5.81889C18.9236 5.81805 18.9239 5.81741 18.924 5.81699C18.9241 5.81677 18.9242 5.81661 18.9242 5.8165C18.9242 5.81644 18.9243 5.8164 18.9243 5.81637C18.9243 5.81634 18.9243 5.81632 18.8855 5.80104ZM15.6273 11.4041C15.3223 11.7244 15.1024 11.9353 14.9185 12.0662C14.7361 12.1961 14.5919 12.2453 14.4375 12.2453V12.3286C14.6137 12.3286 14.7744 12.2711 14.9669 12.1341C15.1579 11.998 15.3827 11.7818 15.6877 11.4615L15.6273 11.4041ZM14.4375 12.2453C14.3662 12.2453 14.2764 12.2024 14.2026 12.0847C14.1286 11.9667 14.0722 11.7751 14.0722 11.4865H13.9889C13.9889 11.7848 14.047 11.9934 14.132 12.129C14.2171 12.2648 14.3308 12.3286 14.4375 12.3286V12.2453ZM14.0722 11.4865V6.01406H13.9889V11.4865H14.0722ZM14.0722 6.01406C14.0722 5.66506 14.0215 5.40031 13.8928 5.22245C13.7617 5.04127 13.556 4.95833 13.268 4.95833V5.04167C13.5395 5.04167 13.715 5.11889 13.8253 5.2713C13.938 5.42704 13.9889 5.66932 13.9889 6.01406H14.0722ZM13.268 4.95833H9.15001V5.04167H13.268V4.95833ZM9.15001 4.95833C8.7181 4.95833 8.44734 5.29925 8.44734 5.64063H8.53068C8.53068 5.34138 8.76792 5.04167 9.15001 5.04167V4.95833ZM8.44734 5.64063C8.44734 5.8185 8.51047 5.96158 8.60262 6.10331C8.64846 6.17382 8.702 6.24476 8.75878 6.31942C8.8158 6.39442 8.87638 6.47354 8.93772 6.56191C9.1815 6.91313 9.43911 7.41294 9.48941 8.33872L9.57262 8.3342C9.52142 7.39175 9.25802 6.87723 9.00618 6.51439C8.94361 6.42425 8.88187 6.34362 8.82511 6.26898C8.7681 6.19401 8.7164 6.12543 8.67248 6.05789C8.58512 5.92352 8.53068 5.79634 8.53068 5.64063H8.44734ZM9.48935 8.33646V12.3958H9.57268V8.33646H9.48935ZM9.48935 12.3958C9.48935 12.8367 9.4513 13.0874 9.37752 13.2275C9.34164 13.2957 9.29792 13.3364 9.24613 13.3609C9.1932 13.386 9.12844 13.3958 9.04801 13.3958V13.4792C9.13408 13.4792 9.21295 13.4689 9.28181 13.4362C9.35179 13.4031 9.40801 13.3485 9.45126 13.2663C9.53573 13.1059 9.57268 12.8357 9.57268 12.3958H9.48935ZM9.04801 13.3958C8.94935 13.3958 8.82684 13.3476 8.6828 13.2477C8.53961 13.1483 8.37957 13.001 8.20682 12.8102C7.86142 12.4289 7.46905 11.8783 7.06315 11.204C6.25151 9.85551 5.38865 8.01669 4.74157 6.05776L4.66244 6.0839C5.31137 8.04842 6.17676 9.89293 6.99175 11.2469C7.39916 11.9238 7.79469 12.4793 8.14506 12.8662C8.32019 13.0595 8.48501 13.2118 8.63529 13.3161C8.78472 13.4198 8.9243 13.4792 9.04801 13.4792V13.3958ZM4.74164 6.05798C4.61536 5.66857 4.48582 5.39215 4.2997 5.21392C4.11125 5.03345 3.87006 4.95833 3.533 4.95833V5.04167C3.85695 5.04167 4.07426 5.11342 4.24206 5.2741C4.41219 5.43702 4.53665 5.69601 4.66237 6.08369L4.74164 6.05798ZM3.533 4.95833H0.889501V5.04167H3.533V4.95833ZM0.889501 4.95833C0.502308 4.95833 0.265845 5.05313 0.127625 5.20915C-0.00981306 5.36429 -0.0416667 5.57079 -0.0416667 5.77396H0.0416667C0.0416667 5.57661 0.0733132 5.39613 0.190001 5.26441C0.305905 5.13358 0.514194 5.04167 0.889501 5.04167V4.95833ZM-0.0416667 5.77396C-0.0416667 5.95974 0.015102 6.32602 0.149492 6.84337C0.284185 7.36188 0.497588 8.0349 0.812668 8.83531C1.44284 10.4362 2.48002 12.5474 4.10851 14.952L4.17751 14.9053C2.55248 12.5058 1.51816 10.4 0.89021 8.80479C0.576226 8.00716 0.36391 7.33734 0.230149 6.82242C0.0960856 6.30633 0.0416667 5.94859 0.0416667 5.77396H-0.0416667ZM4.10821 14.9516C6.27435 18.2414 9.36161 20.0151 12.1495 20.0151V19.9318C9.39641 19.9318 6.33267 18.1784 4.17781 14.9057L4.10821 14.9516ZM12.1495 20.0151C12.9887 20.0151 13.4711 19.9156 13.7433 19.7238C14.0213 19.528 14.0722 19.2424 14.0722 18.9057H13.9889C13.9889 19.2362 13.9383 19.4845 13.6953 19.6557C13.4464 19.831 12.9883 19.9318 12.1495 19.9318V20.0151ZM14.0722 18.9057V16.4234H13.9889V18.9057H14.0722ZM14.0722 16.4234C14.0722 16.2242 14.0817 16.0687 14.1037 15.9472C14.1257 15.8257 14.1596 15.7414 14.2063 15.6821C14.2977 15.5658 14.4497 15.5312 14.717 15.5312V15.4479C14.4503 15.4479 14.2591 15.4801 14.1408 15.6306C14.0825 15.7046 14.045 15.8037 14.0217 15.9324C13.9984 16.0611 13.9889 16.2224 13.9889 16.4234H14.0722ZM14.717 15.5312C15.0796 15.5312 15.7553 15.7323 17.3053 17.3068L17.3647 17.2484C15.8137 15.6729 15.1165 15.4479 14.717 15.4479V15.5312ZM17.3048 17.3063C17.7489 17.7727 18.101 18.1757 18.395 18.5183C18.6887 18.8604 18.9256 19.1435 19.1378 19.368C19.3501 19.5926 19.5402 19.7614 19.7416 19.8737C19.9439 19.9866 20.1559 20.0417 20.4105 20.0417V19.9583C20.1694 19.9583 19.9715 19.9066 19.7822 19.801C19.5919 19.6948 19.4086 19.5332 19.1984 19.3108C18.988 19.0882 18.7531 18.8075 18.4583 18.464C18.1638 18.1209 17.8107 17.7167 17.3652 17.2489L17.3048 17.3063ZM20.4105 20.0417H23.0285V19.9583H20.4105V20.0417ZM23.0285 20.0417C23.4156 20.0417 23.7105 19.9401 23.8807 19.7292C24.0513 19.5177 24.0873 19.2083 23.9838 18.8149L23.9032 18.8361C24.0033 19.2167 23.963 19.4945 23.8159 19.6768C23.6683 19.8596 23.4039 19.9583 23.0285 19.9583V20.0417ZM23.9835 18.8137C23.8672 18.4198 23.5905 17.9415 23.2056 17.397C22.82 16.8518 22.3233 16.2369 21.764 15.5696L21.7001 15.6231C22.2592 16.2901 22.754 16.9029 23.1375 17.4452C23.5215 17.9882 23.7914 18.4573 23.9036 18.8373L23.9835 18.8137ZM21.7643 15.57C21.458 15.1949 21.0754 14.8 20.7357 14.45C20.3944 14.0982 20.099 13.7943 19.9617 13.5975L19.8934 13.6452C20.0356 13.849 20.3374 14.1591 20.6759 14.508C21.0161 14.8586 21.3961 15.2509 21.6998 15.6227L21.7643 15.57ZM19.9614 13.5971C19.7729 13.333 19.7097 13.156 19.7214 12.9904C19.7333 12.8217 19.8226 12.6569 19.9635 12.4147L19.8915 12.3728C19.753 12.6109 19.6518 12.7929 19.6383 12.9845C19.6246 13.1791 19.7011 13.3759 19.8936 13.6456L19.9614 13.5971ZM19.9275 12.3521C19.9368 12.3531 19.9545 12.362 19.9616 12.3699C19.9654 12.3766 19.9687 12.3885 19.969 12.3931C19.9691 12.4003 19.9672 12.4057 19.967 12.4061C19.9662 12.4085 19.9654 12.4099 19.9659 12.4091C19.9664 12.4081 19.9677 12.4056 19.9703 12.4012C19.9753 12.3927 19.9833 12.3797 19.9944 12.3622C20.0164 12.3272 20.0495 12.2756 20.0924 12.2091C20.1781 12.0761 20.3025 11.8841 20.4535 11.6489C20.7554 11.1782 21.1639 10.5339 21.5836 9.83939C22.0033 9.14495 22.4343 8.39988 22.7812 7.72785C23.1274 7.05713 23.3921 6.45501 23.4758 6.04798L23.3942 6.03118C23.313 6.42572 23.0535 7.01865 22.7072 7.68963C22.3615 8.3593 21.9315 9.10258 21.5123 9.79629C21.0932 10.4899 20.6851 11.1335 20.3833 11.6039C20.2324 11.839 20.1082 12.0308 20.0224 12.1639C19.9795 12.2304 19.9461 12.2824 19.9238 12.3178C19.9127 12.3355 19.9042 12.3493 19.8985 12.3589C19.8958 12.3636 19.8933 12.368 19.8915 12.3715C19.8908 12.3729 19.8892 12.3761 19.888 12.3797C19.8877 12.3806 19.8856 12.3864 19.8857 12.394C19.886 12.3987 19.8894 12.4107 19.8932 12.4175C19.9004 12.4254 19.9182 12.4344 19.9275 12.4354V12.3521Z" fill="#FAFBFF" mask="url(#path-1-inside-1_8465_529)"/>
</svg>
